<?xml version="1.0" encoding="utf-8"?>
<!-- Generator: Adobe Illustrator 25.3.1, SVG Export Plug-In . SVG Version: 6.00 Build 0)  -->
<svg version="1.1" id="Layer_1" xmlns="http://www.w3.org/2000/svg" xmlns:xlink="http://www.w3.org/1999/xlink" x="0px" y="0px"
	 viewBox="0 0 348 348" style="enable-background:new 0 0 348 348;" xml:space="preserve">
<style type="text/css">
	.st0{fill:none;stroke:#000000;stroke-width:2;}
	.st1{fill:#AAAAAA;stroke:#000000;stroke-miterlimit:10;}
	.st2{stroke:#000000;stroke-miterlimit:10;}
	.st3{fill:#B4B4B4;stroke:#000000;stroke-miterlimit:10;}
</style>
<path class="st0" d="M5.1,5.8H342v337.7H5.1L5.1,5.8z"/>
<path class="st0" d="M282.7,40.6c0-8.4,7-15.2,15.6-15.2c4.1,0,8.1,1.6,11,4.4c2.9,2.8,4.6,6.7,4.6,10.7c0,8.4-7,15.2-15.6,15.2
	C289.7,55.7,282.7,48.9,282.7,40.6L282.7,40.6z"/>
<rect x="6.7" y="324.4" class="st1" width="335.3" height="19"/>
<rect x="9.4" y="326.9" class="st2" width="32.9" height="14.1"/>
<rect x="305.7" y="326.9" class="st2" width="32.9" height="14.1"/>
<rect x="59.3" y="109.8" class="st3" width="223.4" height="161.2"/>
<rect x="59.3" y="110" class="st1" width="223.4" height="14.9"/>
<rect x="62.3" y="128" class="st2" width="212.9" height="21.5"/>
<rect x="62.3" y="179.7" class="st2" width="18.8" height="21"/>
<rect x="83.8" y="179.7" class="st2" width="18.8" height="21"/>
<rect x="105.3" y="179.7" class="st2" width="18.8" height="21"/>
<rect x="126.9" y="179.7" class="st2" width="18.8" height="21"/>
<rect x="148.4" y="179.7" class="st2" width="18.8" height="21"/>
<rect x="169.9" y="179.7" class="st2" width="18.8" height="21"/>
<rect x="191.7" y="179.7" class="st2" width="18.8" height="21"/>
<rect x="213.2" y="179.7" class="st2" width="18.8" height="21"/>
<rect x="234.8" y="179.7" class="st2" width="18.8" height="21"/>
<rect x="256.3" y="179.7" class="st2" width="18.8" height="21"/>
<rect x="73" y="204.6" class="st2" width="18.8" height="21"/>
<rect x="94.6" y="204.6" class="st2" width="18.8" height="21"/>
<rect x="116.1" y="204.6" class="st2" width="18.8" height="21"/>
<rect x="137.6" y="204.6" class="st2" width="18.8" height="21"/>
<rect x="159.2" y="204.6" class="st2" width="18.8" height="21"/>
<rect x="180.9" y="204.6" class="st2" width="18.8" height="21"/>
<rect x="202.5" y="204.6" class="st2" width="18.8" height="21"/>
<rect x="224" y="204.6" class="st2" width="18.8" height="21"/>
<rect x="245.5" y="204.6" class="st2" width="18.8" height="21"/>
<rect x="83.7" y="229.5" class="st2" width="18.8" height="21"/>
<rect x="105.2" y="229.5" class="st2" width="18.8" height="21"/>
<rect x="126.7" y="229.5" class="st2" width="18.8" height="21"/>
<rect x="148.3" y="229.5" class="st2" width="18.8" height="21"/>
<rect x="169.8" y="229.5" class="st2" width="18.8" height="21"/>
<rect x="191.6" y="229.5" class="st2" width="18.8" height="21"/>
<rect x="213.1" y="229.5" class="st2" width="18.8" height="21"/>
<rect x="234.8" y="229.5" class="st2" width="29.6" height="21"/>
<rect x="256.3" y="153.5" class="st2" width="18.8" height="21"/>
<rect x="269.6" y="111.6" class="st2" width="11" height="11"/>
<rect x="256.3" y="111.6" class="st2" width="11" height="11"/>
<rect x="242.8" y="111.6" class="st2" width="11" height="11"/>
</svg>
